<mxfile host="app.diagrams.net" agent="Mozilla/5.0 (Windows NT 10.0; Win64; x64; rv:128.0) Gecko/20100101 Firefox/128.0" version="24.7.6" pages="4">
  <diagram name="RelationOfNodes" id="iKxuEZNfw2O1NoVfiC6R">
    <mxGraphModel dx="1195" dy="628" grid="1" gridSize="10" guides="1" tooltips="1" connect="1" arrows="1" fold="1" page="1" pageScale="1" pageWidth="827" pageHeight="1169" math="0" shadow="0">
      <root>
        <mxCell id="0" />
        <mxCell id="1" parent="0" />
        <mxCell id="TVJO6SpJhbvBE_Pmetm3-2" value="&lt;div&gt;MenuController&lt;/div&gt;&lt;div&gt;Godot - Global&lt;br&gt;&lt;/div&gt;" style="rounded=1;whiteSpace=wrap;html=1;fillColor=#ffe6cc;strokeColor=#d79b00;" parent="1" vertex="1">
          <mxGeometry x="250" y="80" width="120" height="60" as="geometry" />
        </mxCell>
        <mxCell id="TVJO6SpJhbvBE_Pmetm3-7" style="edgeStyle=orthogonalEdgeStyle;rounded=0;orthogonalLoop=1;jettySize=auto;html=1;entryX=0.5;entryY=1;entryDx=0;entryDy=0;dashed=1;" parent="1" source="TVJO6SpJhbvBE_Pmetm3-3" target="TVJO6SpJhbvBE_Pmetm3-5" edge="1">
          <mxGeometry relative="1" as="geometry" />
        </mxCell>
        <mxCell id="TVJO6SpJhbvBE_Pmetm3-3" value="&lt;div&gt;Button&lt;/div&gt;" style="rounded=1;whiteSpace=wrap;html=1;" parent="1" vertex="1">
          <mxGeometry x="180" y="360" width="120" height="60" as="geometry" />
        </mxCell>
        <mxCell id="TVJO6SpJhbvBE_Pmetm3-8" style="edgeStyle=orthogonalEdgeStyle;rounded=0;orthogonalLoop=1;jettySize=auto;html=1;dashed=1;" parent="1" source="TVJO6SpJhbvBE_Pmetm3-4" target="TVJO6SpJhbvBE_Pmetm3-6" edge="1">
          <mxGeometry relative="1" as="geometry" />
        </mxCell>
        <mxCell id="TVJO6SpJhbvBE_Pmetm3-4" value="TextureButton" style="rounded=1;whiteSpace=wrap;html=1;" parent="1" vertex="1">
          <mxGeometry x="330" y="360" width="120" height="60" as="geometry" />
        </mxCell>
        <mxCell id="TVJO6SpJhbvBE_Pmetm3-15" style="edgeStyle=orthogonalEdgeStyle;rounded=0;orthogonalLoop=1;jettySize=auto;html=1;entryX=0.5;entryY=1;entryDx=0;entryDy=0;" parent="1" source="TVJO6SpJhbvBE_Pmetm3-5" target="TVJO6SpJhbvBE_Pmetm3-2" edge="1">
          <mxGeometry relative="1" as="geometry" />
        </mxCell>
        <mxCell id="TVJO6SpJhbvBE_Pmetm3-5" value="TransitionButton" style="rounded=1;whiteSpace=wrap;html=1;fillColor=#fff2cc;strokeColor=#d6b656;" parent="1" vertex="1">
          <mxGeometry x="180" y="250" width="120" height="60" as="geometry" />
        </mxCell>
        <mxCell id="TVJO6SpJhbvBE_Pmetm3-16" style="edgeStyle=orthogonalEdgeStyle;rounded=0;orthogonalLoop=1;jettySize=auto;html=1;entryX=0.5;entryY=1;entryDx=0;entryDy=0;" parent="1" source="TVJO6SpJhbvBE_Pmetm3-6" target="TVJO6SpJhbvBE_Pmetm3-2" edge="1">
          <mxGeometry relative="1" as="geometry" />
        </mxCell>
        <mxCell id="TVJO6SpJhbvBE_Pmetm3-17" value="Button pressed" style="edgeLabel;html=1;align=center;verticalAlign=middle;resizable=0;points=[];" parent="TVJO6SpJhbvBE_Pmetm3-16" vertex="1" connectable="0">
          <mxGeometry x="0.0439" y="-1" relative="1" as="geometry">
            <mxPoint x="-36" y="1" as="offset" />
          </mxGeometry>
        </mxCell>
        <mxCell id="TVJO6SpJhbvBE_Pmetm3-6" value="TransitionTextureButton" style="rounded=1;whiteSpace=wrap;html=1;fillColor=#fff2cc;strokeColor=#d6b656;" parent="1" vertex="1">
          <mxGeometry x="320" y="250" width="140" height="60" as="geometry" />
        </mxCell>
        <mxCell id="TVJO6SpJhbvBE_Pmetm3-9" value="Properties&amp;nbsp; (Export)" style="swimlane;fontStyle=0;childLayout=stackLayout;horizontal=1;startSize=30;horizontalStack=0;resizeParent=1;resizeParentMax=0;resizeLast=0;collapsible=1;marginBottom=0;whiteSpace=wrap;html=1;" parent="1" vertex="1">
          <mxGeometry x="250" y="480" width="140" height="120" as="geometry" />
        </mxCell>
        <mxCell id="TVJO6SpJhbvBE_Pmetm3-10" value="TransitionType" style="text;strokeColor=none;fillColor=none;align=left;verticalAlign=middle;spacingLeft=4;spacingRight=4;overflow=hidden;points=[[0,0.5],[1,0.5]];portConstraint=eastwest;rotatable=0;whiteSpace=wrap;html=1;" parent="TVJO6SpJhbvBE_Pmetm3-9" vertex="1">
          <mxGeometry y="30" width="140" height="30" as="geometry" />
        </mxCell>
        <mxCell id="TVJO6SpJhbvBE_Pmetm3-11" value="TransitionTo (PackedScene)" style="text;strokeColor=none;fillColor=none;align=left;verticalAlign=middle;spacingLeft=4;spacingRight=4;overflow=hidden;points=[[0,0.5],[1,0.5]];portConstraint=eastwest;rotatable=0;whiteSpace=wrap;html=1;" parent="TVJO6SpJhbvBE_Pmetm3-9" vertex="1">
          <mxGeometry y="60" width="140" height="30" as="geometry" />
        </mxCell>
        <mxCell id="TVJO6SpJhbvBE_Pmetm3-12" value="Transition (Resource)" style="text;strokeColor=none;fillColor=none;align=left;verticalAlign=middle;spacingLeft=4;spacingRight=4;overflow=hidden;points=[[0,0.5],[1,0.5]];portConstraint=eastwest;rotatable=0;whiteSpace=wrap;html=1;" parent="TVJO6SpJhbvBE_Pmetm3-9" vertex="1">
          <mxGeometry y="90" width="140" height="30" as="geometry" />
        </mxCell>
        <mxCell id="TVJO6SpJhbvBE_Pmetm3-13" style="edgeStyle=orthogonalEdgeStyle;rounded=0;orthogonalLoop=1;jettySize=auto;html=1;entryX=0.5;entryY=1;entryDx=0;entryDy=0;dashed=1;exitX=0.369;exitY=0.003;exitDx=0;exitDy=0;exitPerimeter=0;" parent="1" source="TVJO6SpJhbvBE_Pmetm3-9" target="TVJO6SpJhbvBE_Pmetm3-3" edge="1">
          <mxGeometry relative="1" as="geometry">
            <mxPoint x="260" y="450" as="sourcePoint" />
            <mxPoint x="260" y="400" as="targetPoint" />
          </mxGeometry>
        </mxCell>
        <mxCell id="TVJO6SpJhbvBE_Pmetm3-14" style="edgeStyle=orthogonalEdgeStyle;rounded=0;orthogonalLoop=1;jettySize=auto;html=1;entryX=0.5;entryY=1;entryDx=0;entryDy=0;dashed=1;exitX=0.679;exitY=-0.018;exitDx=0;exitDy=0;exitPerimeter=0;" parent="1" source="TVJO6SpJhbvBE_Pmetm3-9" target="TVJO6SpJhbvBE_Pmetm3-4" edge="1">
          <mxGeometry relative="1" as="geometry">
            <mxPoint x="360" y="440" as="sourcePoint" />
            <mxPoint x="360" y="390" as="targetPoint" />
          </mxGeometry>
        </mxCell>
        <mxCell id="TVJO6SpJhbvBE_Pmetm3-22" style="edgeStyle=orthogonalEdgeStyle;rounded=0;orthogonalLoop=1;jettySize=auto;html=1;" parent="1" source="TVJO6SpJhbvBE_Pmetm3-18" target="TVJO6SpJhbvBE_Pmetm3-10" edge="1">
          <mxGeometry relative="1" as="geometry" />
        </mxCell>
        <mxCell id="TVJO6SpJhbvBE_Pmetm3-18" value="TransitionType (Enum)" style="swimlane;fontStyle=0;childLayout=stackLayout;horizontal=1;startSize=30;horizontalStack=0;resizeParent=1;resizeParentMax=0;resizeLast=0;collapsible=1;marginBottom=0;whiteSpace=wrap;html=1;" parent="1" vertex="1">
          <mxGeometry x="590" y="280" width="140" height="120" as="geometry" />
        </mxCell>
        <mxCell id="TVJO6SpJhbvBE_Pmetm3-19" value="&lt;div&gt;Push&lt;/div&gt;" style="text;strokeColor=none;fillColor=none;align=left;verticalAlign=middle;spacingLeft=4;spacingRight=4;overflow=hidden;points=[[0,0.5],[1,0.5]];portConstraint=eastwest;rotatable=0;whiteSpace=wrap;html=1;" parent="TVJO6SpJhbvBE_Pmetm3-18" vertex="1">
          <mxGeometry y="30" width="140" height="30" as="geometry" />
        </mxCell>
        <mxCell id="TVJO6SpJhbvBE_Pmetm3-20" value="Pop" style="text;strokeColor=none;fillColor=none;align=left;verticalAlign=middle;spacingLeft=4;spacingRight=4;overflow=hidden;points=[[0,0.5],[1,0.5]];portConstraint=eastwest;rotatable=0;whiteSpace=wrap;html=1;" parent="TVJO6SpJhbvBE_Pmetm3-18" vertex="1">
          <mxGeometry y="60" width="140" height="30" as="geometry" />
        </mxCell>
        <mxCell id="TVJO6SpJhbvBE_Pmetm3-21" value="Switch" style="text;strokeColor=none;fillColor=none;align=left;verticalAlign=middle;spacingLeft=4;spacingRight=4;overflow=hidden;points=[[0,0.5],[1,0.5]];portConstraint=eastwest;rotatable=0;whiteSpace=wrap;html=1;" parent="TVJO6SpJhbvBE_Pmetm3-18" vertex="1">
          <mxGeometry y="90" width="140" height="30" as="geometry" />
        </mxCell>
        <mxCell id="TVJO6SpJhbvBE_Pmetm3-24" style="edgeStyle=orthogonalEdgeStyle;rounded=0;orthogonalLoop=1;jettySize=auto;html=1;" parent="1" source="TVJO6SpJhbvBE_Pmetm3-23" target="TVJO6SpJhbvBE_Pmetm3-11" edge="1">
          <mxGeometry relative="1" as="geometry" />
        </mxCell>
        <mxCell id="TVJO6SpJhbvBE_Pmetm3-23" value="Any Scene with the root derived from &#39;Control&#39;" style="rounded=1;whiteSpace=wrap;html=1;" parent="1" vertex="1">
          <mxGeometry x="680" y="420" width="120" height="60" as="geometry" />
        </mxCell>
        <mxCell id="TVJO6SpJhbvBE_Pmetm3-25" value="&lt;div&gt;Special built node&amp;nbsp;&lt;/div&gt;&lt;div&gt;for this addon&lt;/div&gt;" style="rounded=1;whiteSpace=wrap;html=1;fillColor=#fff2cc;strokeColor=#d6b656;" parent="1" vertex="1">
          <mxGeometry x="600" y="50" width="140" height="60" as="geometry" />
        </mxCell>
      </root>
    </mxGraphModel>
  </diagram>
  <diagram id="iz6pEtYCjTcxsPthzzPG" name="Flow - Push">
    <mxGraphModel grid="1" page="1" gridSize="10" guides="1" tooltips="1" connect="1" arrows="1" fold="1" pageScale="1" pageWidth="827" pageHeight="1169" math="0" shadow="0">
      <root>
        <mxCell id="0" />
        <mxCell id="1" parent="0" />
        <mxCell id="KieXNN2Gj02x4O6grTwc-19" value="Transition" style="shape=umlLifeline;perimeter=lifelinePerimeter;whiteSpace=wrap;html=1;container=1;dropTarget=0;collapsible=0;recursiveResize=0;outlineConnect=0;portConstraint=eastwest;newEdgeStyle={&quot;curved&quot;:0,&quot;rounded&quot;:0};" vertex="1" parent="1">
          <mxGeometry x="210" y="80" width="100" height="300" as="geometry" />
        </mxCell>
        <mxCell id="KieXNN2Gj02x4O6grTwc-22" value="" style="html=1;points=[[0,0,0,0,5],[0,1,0,0,-5],[1,0,0,0,5],[1,1,0,0,-5]];perimeter=orthogonalPerimeter;outlineConnect=0;targetShapes=umlLifeline;portConstraint=eastwest;newEdgeStyle={&quot;curved&quot;:0,&quot;rounded&quot;:0};" vertex="1" parent="KieXNN2Gj02x4O6grTwc-19">
          <mxGeometry x="44.5" y="180" width="11" height="80" as="geometry" />
        </mxCell>
        <mxCell id="KieXNN2Gj02x4O6grTwc-7" style="edgeStyle=orthogonalEdgeStyle;rounded=0;orthogonalLoop=1;jettySize=auto;html=1;curved=0;" edge="1" parent="1" source="KieXNN2Gj02x4O6grTwc-2" target="KieXNN2Gj02x4O6grTwc-3">
          <mxGeometry relative="1" as="geometry">
            <Array as="points">
              <mxPoint x="160" y="140" />
              <mxPoint x="160" y="140" />
            </Array>
          </mxGeometry>
        </mxCell>
        <mxCell id="KieXNN2Gj02x4O6grTwc-8" value="User press" style="edgeLabel;html=1;align=center;verticalAlign=middle;resizable=0;points=[];" vertex="1" connectable="0" parent="KieXNN2Gj02x4O6grTwc-7">
          <mxGeometry x="-0.1531" y="1" relative="1" as="geometry">
            <mxPoint as="offset" />
          </mxGeometry>
        </mxCell>
        <mxCell id="KieXNN2Gj02x4O6grTwc-2" value="" style="shape=umlLifeline;perimeter=lifelinePerimeter;whiteSpace=wrap;html=1;container=1;dropTarget=0;collapsible=0;recursiveResize=0;outlineConnect=0;portConstraint=eastwest;newEdgeStyle={&quot;curved&quot;:0,&quot;rounded&quot;:0};participant=umlActor;" vertex="1" parent="1">
          <mxGeometry x="80" y="70" width="20" height="120" as="geometry" />
        </mxCell>
        <mxCell id="KieXNN2Gj02x4O6grTwc-6" style="edgeStyle=orthogonalEdgeStyle;rounded=0;orthogonalLoop=1;jettySize=auto;html=1;curved=0;startArrow=oval;startFill=1;" edge="1" parent="1" source="KieXNN2Gj02x4O6grTwc-3" target="KieXNN2Gj02x4O6grTwc-5">
          <mxGeometry relative="1" as="geometry">
            <Array as="points">
              <mxPoint x="240" y="160" />
              <mxPoint x="240" y="160" />
            </Array>
          </mxGeometry>
        </mxCell>
        <mxCell id="KieXNN2Gj02x4O6grTwc-9" value="TransitionToMenu()" style="edgeLabel;html=1;align=center;verticalAlign=middle;resizable=0;points=[];" vertex="1" connectable="0" parent="KieXNN2Gj02x4O6grTwc-6">
          <mxGeometry x="0.0311" y="-2" relative="1" as="geometry">
            <mxPoint as="offset" />
          </mxGeometry>
        </mxCell>
        <mxCell id="KieXNN2Gj02x4O6grTwc-3" value="Button" style="shape=umlLifeline;perimeter=lifelinePerimeter;whiteSpace=wrap;html=1;container=1;dropTarget=0;collapsible=0;recursiveResize=0;outlineConnect=0;portConstraint=eastwest;newEdgeStyle={&quot;curved&quot;:0,&quot;rounded&quot;:0};" vertex="1" parent="1">
          <mxGeometry x="130" y="70" width="100" height="300" as="geometry" />
        </mxCell>
        <mxCell id="KieXNN2Gj02x4O6grTwc-13" style="edgeStyle=orthogonalEdgeStyle;rounded=0;orthogonalLoop=1;jettySize=auto;html=1;curved=0;startArrow=block;startFill=1;endArrow=oval;endFill=0;" edge="1" parent="1">
          <mxGeometry relative="1" as="geometry">
            <mxPoint x="418.92857142857133" y="221.02857142857135" as="sourcePoint" />
            <mxPoint x="532.5" y="221.02857142857135" as="targetPoint" />
            <Array as="points">
              <mxPoint x="479" y="221" />
              <mxPoint x="479" y="221" />
            </Array>
          </mxGeometry>
        </mxCell>
        <mxCell id="KieXNN2Gj02x4O6grTwc-14" value="Create Scene" style="edgeLabel;html=1;align=center;verticalAlign=middle;resizable=0;points=[];" vertex="1" connectable="0" parent="KieXNN2Gj02x4O6grTwc-13">
          <mxGeometry x="0.0252" y="-2" relative="1" as="geometry">
            <mxPoint as="offset" />
          </mxGeometry>
        </mxCell>
        <mxCell id="KieXNN2Gj02x4O6grTwc-16" style="edgeStyle=orthogonalEdgeStyle;rounded=0;orthogonalLoop=1;jettySize=auto;html=1;curved=0;startArrow=classic;startFill=1;endArrow=oval;endFill=0;" edge="1" parent="1" source="KieXNN2Gj02x4O6grTwc-5" target="KieXNN2Gj02x4O6grTwc-11">
          <mxGeometry relative="1" as="geometry">
            <Array as="points">
              <mxPoint x="539" y="250" />
              <mxPoint x="539" y="250" />
            </Array>
          </mxGeometry>
        </mxCell>
        <mxCell id="KieXNN2Gj02x4O6grTwc-17" value="Get current active scene" style="edgeLabel;html=1;align=center;verticalAlign=middle;resizable=0;points=[];" vertex="1" connectable="0" parent="KieXNN2Gj02x4O6grTwc-16">
          <mxGeometry x="0.1693" relative="1" as="geometry">
            <mxPoint as="offset" />
          </mxGeometry>
        </mxCell>
        <mxCell id="KieXNN2Gj02x4O6grTwc-5" value="MenuController" style="shape=umlLifeline;perimeter=lifelinePerimeter;whiteSpace=wrap;html=1;container=1;dropTarget=0;collapsible=0;recursiveResize=0;outlineConnect=0;portConstraint=eastwest;newEdgeStyle={&quot;curved&quot;:0,&quot;rounded&quot;:0};" vertex="1" parent="1">
          <mxGeometry x="369" y="70" width="100" height="340" as="geometry" />
        </mxCell>
        <mxCell id="KieXNN2Gj02x4O6grTwc-10" value="ToScene" style="shape=umlLifeline;perimeter=lifelinePerimeter;whiteSpace=wrap;html=1;container=1;dropTarget=0;collapsible=0;recursiveResize=0;outlineConnect=0;portConstraint=eastwest;newEdgeStyle={&quot;curved&quot;:0,&quot;rounded&quot;:0};" vertex="1" parent="1">
          <mxGeometry x="483" y="170" width="100" height="240" as="geometry" />
        </mxCell>
        <mxCell id="KieXNN2Gj02x4O6grTwc-11" value="FromScene" style="shape=umlLifeline;perimeter=lifelinePerimeter;whiteSpace=wrap;html=1;container=1;dropTarget=0;collapsible=0;recursiveResize=0;outlineConnect=0;portConstraint=eastwest;newEdgeStyle={&quot;curved&quot;:0,&quot;rounded&quot;:0};" vertex="1" parent="1">
          <mxGeometry x="599" y="70" width="100" height="330" as="geometry" />
        </mxCell>
        <mxCell id="KieXNN2Gj02x4O6grTwc-12" value="&lt;h1&gt;Push&lt;/h1&gt;" style="text;html=1;align=center;verticalAlign=middle;whiteSpace=wrap;rounded=0;" vertex="1" parent="1">
          <mxGeometry x="80" y="30" width="490" height="30" as="geometry" />
        </mxCell>
        <mxCell id="KieXNN2Gj02x4O6grTwc-15" value="InTransition = true" style="text;html=1;align=center;verticalAlign=middle;resizable=0;points=[];autosize=1;strokeColor=#d79b00;fillColor=#ffe6cc;" vertex="1" parent="1">
          <mxGeometry x="359" y="177" width="120" height="30" as="geometry" />
        </mxCell>
        <mxCell id="KieXNN2Gj02x4O6grTwc-23" value="PerformTransition()" style="html=1;verticalAlign=bottom;endArrow=block;curved=0;rounded=0;entryX=0.949;entryY=0.136;entryDx=0;entryDy=0;entryPerimeter=0;" edge="1" target="KieXNN2Gj02x4O6grTwc-22" parent="1" source="KieXNN2Gj02x4O6grTwc-5">
          <mxGeometry relative="1" as="geometry">
            <mxPoint x="310" y="305" as="sourcePoint" />
          </mxGeometry>
        </mxCell>
        <mxCell id="KieXNN2Gj02x4O6grTwc-24" value="return" style="html=1;verticalAlign=bottom;endArrow=open;dashed=1;endSize=8;curved=0;rounded=0;exitX=1.158;exitY=0.932;exitDx=0;exitDy=0;exitPerimeter=0;" edge="1" source="KieXNN2Gj02x4O6grTwc-22" parent="1" target="KieXNN2Gj02x4O6grTwc-5">
          <mxGeometry relative="1" as="geometry">
            <mxPoint x="310" y="375" as="targetPoint" />
          </mxGeometry>
        </mxCell>
        <mxCell id="KieXNN2Gj02x4O6grTwc-25" value="InTransition = false" style="text;html=1;align=center;verticalAlign=middle;resizable=0;points=[];autosize=1;strokeColor=#d79b00;fillColor=#ffe6cc;" vertex="1" parent="1">
          <mxGeometry x="354" y="370" width="130" height="30" as="geometry" />
        </mxCell>
        <mxCell id="KieXNN2Gj02x4O6grTwc-26" style="edgeStyle=orthogonalEdgeStyle;rounded=0;orthogonalLoop=1;jettySize=auto;html=1;curved=0;" edge="1" parent="1" source="KieXNN2Gj02x4O6grTwc-5">
          <mxGeometry relative="1" as="geometry">
            <mxPoint x="650" y="350" as="targetPoint" />
            <Array as="points">
              <mxPoint x="651" y="350" />
            </Array>
          </mxGeometry>
        </mxCell>
        <mxCell id="KieXNN2Gj02x4O6grTwc-27" value="RemoveChild()" style="edgeLabel;html=1;align=center;verticalAlign=middle;resizable=0;points=[];" vertex="1" connectable="0" parent="KieXNN2Gj02x4O6grTwc-26">
          <mxGeometry x="0.1429" y="-1" relative="1" as="geometry">
            <mxPoint as="offset" />
          </mxGeometry>
        </mxCell>
      </root>
    </mxGraphModel>
  </diagram>
  <diagram name="Flow - Pop" id="gRb4DRHdS907JZQO40ti">
    <mxGraphModel grid="1" page="1" gridSize="10" guides="1" tooltips="1" connect="1" arrows="1" fold="1" pageScale="1" pageWidth="827" pageHeight="1169" math="0" shadow="0">
      <root>
        <mxCell id="aU-Zfj_-0vGyHJJdXDir-0" />
        <mxCell id="aU-Zfj_-0vGyHJJdXDir-1" parent="aU-Zfj_-0vGyHJJdXDir-0" />
        <mxCell id="aU-Zfj_-0vGyHJJdXDir-2" value="Transition" style="shape=umlLifeline;perimeter=lifelinePerimeter;whiteSpace=wrap;html=1;container=1;dropTarget=0;collapsible=0;recursiveResize=0;outlineConnect=0;portConstraint=eastwest;newEdgeStyle={&quot;curved&quot;:0,&quot;rounded&quot;:0};" vertex="1" parent="aU-Zfj_-0vGyHJJdXDir-1">
          <mxGeometry x="210" y="80" width="100" height="300" as="geometry" />
        </mxCell>
        <mxCell id="aU-Zfj_-0vGyHJJdXDir-3" value="" style="html=1;points=[[0,0,0,0,5],[0,1,0,0,-5],[1,0,0,0,5],[1,1,0,0,-5]];perimeter=orthogonalPerimeter;outlineConnect=0;targetShapes=umlLifeline;portConstraint=eastwest;newEdgeStyle={&quot;curved&quot;:0,&quot;rounded&quot;:0};" vertex="1" parent="aU-Zfj_-0vGyHJJdXDir-2">
          <mxGeometry x="44.5" y="208" width="11" height="80" as="geometry" />
        </mxCell>
        <mxCell id="aU-Zfj_-0vGyHJJdXDir-4" style="edgeStyle=orthogonalEdgeStyle;rounded=0;orthogonalLoop=1;jettySize=auto;html=1;curved=0;" edge="1" parent="aU-Zfj_-0vGyHJJdXDir-1" source="aU-Zfj_-0vGyHJJdXDir-6" target="aU-Zfj_-0vGyHJJdXDir-9">
          <mxGeometry relative="1" as="geometry">
            <Array as="points">
              <mxPoint x="160" y="140" />
              <mxPoint x="160" y="140" />
            </Array>
          </mxGeometry>
        </mxCell>
        <mxCell id="aU-Zfj_-0vGyHJJdXDir-5" value="User press" style="edgeLabel;html=1;align=center;verticalAlign=middle;resizable=0;points=[];" vertex="1" connectable="0" parent="aU-Zfj_-0vGyHJJdXDir-4">
          <mxGeometry x="-0.1531" y="1" relative="1" as="geometry">
            <mxPoint as="offset" />
          </mxGeometry>
        </mxCell>
        <mxCell id="aU-Zfj_-0vGyHJJdXDir-6" value="" style="shape=umlLifeline;perimeter=lifelinePerimeter;whiteSpace=wrap;html=1;container=1;dropTarget=0;collapsible=0;recursiveResize=0;outlineConnect=0;portConstraint=eastwest;newEdgeStyle={&quot;curved&quot;:0,&quot;rounded&quot;:0};participant=umlActor;" vertex="1" parent="aU-Zfj_-0vGyHJJdXDir-1">
          <mxGeometry x="80" y="70" width="20" height="120" as="geometry" />
        </mxCell>
        <mxCell id="aU-Zfj_-0vGyHJJdXDir-7" style="edgeStyle=orthogonalEdgeStyle;rounded=0;orthogonalLoop=1;jettySize=auto;html=1;curved=0;startArrow=oval;startFill=1;" edge="1" parent="aU-Zfj_-0vGyHJJdXDir-1" source="aU-Zfj_-0vGyHJJdXDir-9" target="aU-Zfj_-0vGyHJJdXDir-14">
          <mxGeometry relative="1" as="geometry">
            <Array as="points">
              <mxPoint x="240" y="160" />
              <mxPoint x="240" y="160" />
            </Array>
          </mxGeometry>
        </mxCell>
        <mxCell id="aU-Zfj_-0vGyHJJdXDir-8" value="TransitionToMenu()" style="edgeLabel;html=1;align=center;verticalAlign=middle;resizable=0;points=[];" vertex="1" connectable="0" parent="aU-Zfj_-0vGyHJJdXDir-7">
          <mxGeometry x="0.0311" y="-2" relative="1" as="geometry">
            <mxPoint as="offset" />
          </mxGeometry>
        </mxCell>
        <mxCell id="aU-Zfj_-0vGyHJJdXDir-9" value="Button" style="shape=umlLifeline;perimeter=lifelinePerimeter;whiteSpace=wrap;html=1;container=1;dropTarget=0;collapsible=0;recursiveResize=0;outlineConnect=0;portConstraint=eastwest;newEdgeStyle={&quot;curved&quot;:0,&quot;rounded&quot;:0};" vertex="1" parent="aU-Zfj_-0vGyHJJdXDir-1">
          <mxGeometry x="130" y="70" width="100" height="300" as="geometry" />
        </mxCell>
        <mxCell id="aU-Zfj_-0vGyHJJdXDir-10" style="edgeStyle=orthogonalEdgeStyle;rounded=0;orthogonalLoop=1;jettySize=auto;html=1;curved=0;startArrow=block;startFill=1;endArrow=oval;endFill=0;" edge="1" parent="aU-Zfj_-0vGyHJJdXDir-1">
          <mxGeometry relative="1" as="geometry">
            <mxPoint x="418.92857142857133" y="221.02857142857135" as="sourcePoint" />
            <mxPoint x="532.5" y="221.02857142857135" as="targetPoint" />
            <Array as="points">
              <mxPoint x="479" y="221" />
              <mxPoint x="479" y="221" />
            </Array>
          </mxGeometry>
        </mxCell>
        <mxCell id="aU-Zfj_-0vGyHJJdXDir-11" value="Get previous Scene" style="edgeLabel;html=1;align=center;verticalAlign=middle;resizable=0;points=[];" vertex="1" connectable="0" parent="aU-Zfj_-0vGyHJJdXDir-10">
          <mxGeometry x="0.0252" y="-2" relative="1" as="geometry">
            <mxPoint as="offset" />
          </mxGeometry>
        </mxCell>
        <mxCell id="aU-Zfj_-0vGyHJJdXDir-12" style="edgeStyle=orthogonalEdgeStyle;rounded=0;orthogonalLoop=1;jettySize=auto;html=1;curved=0;startArrow=classic;startFill=1;endArrow=oval;endFill=0;" edge="1" parent="aU-Zfj_-0vGyHJJdXDir-1">
          <mxGeometry relative="1" as="geometry">
            <mxPoint x="419.02380952380963" y="278" as="sourcePoint" />
            <mxPoint x="648.5" y="278" as="targetPoint" />
            <Array as="points">
              <mxPoint x="539" y="278" />
              <mxPoint x="539" y="278" />
            </Array>
          </mxGeometry>
        </mxCell>
        <mxCell id="aU-Zfj_-0vGyHJJdXDir-13" value="Get current active scene" style="edgeLabel;html=1;align=center;verticalAlign=middle;resizable=0;points=[];" vertex="1" connectable="0" parent="aU-Zfj_-0vGyHJJdXDir-12">
          <mxGeometry x="0.1693" relative="1" as="geometry">
            <mxPoint as="offset" />
          </mxGeometry>
        </mxCell>
        <mxCell id="aU-Zfj_-0vGyHJJdXDir-14" value="MenuController" style="shape=umlLifeline;perimeter=lifelinePerimeter;whiteSpace=wrap;html=1;container=1;dropTarget=0;collapsible=0;recursiveResize=0;outlineConnect=0;portConstraint=eastwest;newEdgeStyle={&quot;curved&quot;:0,&quot;rounded&quot;:0};" vertex="1" parent="aU-Zfj_-0vGyHJJdXDir-1">
          <mxGeometry x="369" y="70" width="100" height="420" as="geometry" />
        </mxCell>
        <mxCell id="aU-Zfj_-0vGyHJJdXDir-15" value="ToScene" style="shape=umlLifeline;perimeter=lifelinePerimeter;whiteSpace=wrap;html=1;container=1;dropTarget=0;collapsible=0;recursiveResize=0;outlineConnect=0;portConstraint=eastwest;newEdgeStyle={&quot;curved&quot;:0,&quot;rounded&quot;:0};" vertex="1" parent="aU-Zfj_-0vGyHJJdXDir-1">
          <mxGeometry x="483" y="70" width="100" height="420" as="geometry" />
        </mxCell>
        <mxCell id="aU-Zfj_-0vGyHJJdXDir-16" value="FromScene" style="shape=umlLifeline;perimeter=lifelinePerimeter;whiteSpace=wrap;html=1;container=1;dropTarget=0;collapsible=0;recursiveResize=0;outlineConnect=0;portConstraint=eastwest;newEdgeStyle={&quot;curved&quot;:0,&quot;rounded&quot;:0};" vertex="1" parent="aU-Zfj_-0vGyHJJdXDir-1">
          <mxGeometry x="599" y="70" width="100" height="320" as="geometry" />
        </mxCell>
        <mxCell id="aU-Zfj_-0vGyHJJdXDir-17" value="&lt;h1&gt;Pop&lt;/h1&gt;" style="text;html=1;align=center;verticalAlign=middle;whiteSpace=wrap;rounded=0;" vertex="1" parent="aU-Zfj_-0vGyHJJdXDir-1">
          <mxGeometry x="80" y="30" width="490" height="30" as="geometry" />
        </mxCell>
        <mxCell id="aU-Zfj_-0vGyHJJdXDir-18" value="InTransition = true" style="text;html=1;align=center;verticalAlign=middle;resizable=0;points=[];autosize=1;strokeColor=#d79b00;fillColor=#ffe6cc;" vertex="1" parent="aU-Zfj_-0vGyHJJdXDir-1">
          <mxGeometry x="359" y="177" width="120" height="30" as="geometry" />
        </mxCell>
        <mxCell id="aU-Zfj_-0vGyHJJdXDir-19" value="PerformTransition()" style="html=1;verticalAlign=bottom;endArrow=block;curved=0;rounded=0;entryX=0.949;entryY=0.136;entryDx=0;entryDy=0;entryPerimeter=0;" edge="1" parent="aU-Zfj_-0vGyHJJdXDir-1" target="aU-Zfj_-0vGyHJJdXDir-3">
          <mxGeometry relative="1" as="geometry">
            <mxPoint x="418.5" y="298.88" as="sourcePoint" />
          </mxGeometry>
        </mxCell>
        <mxCell id="aU-Zfj_-0vGyHJJdXDir-20" value="return" style="html=1;verticalAlign=bottom;endArrow=open;dashed=1;endSize=8;curved=0;rounded=0;exitX=1.158;exitY=0.932;exitDx=0;exitDy=0;exitPerimeter=0;" edge="1" parent="aU-Zfj_-0vGyHJJdXDir-1" source="aU-Zfj_-0vGyHJJdXDir-3">
          <mxGeometry relative="1" as="geometry">
            <mxPoint x="418.5" y="362.56000000000006" as="targetPoint" />
          </mxGeometry>
        </mxCell>
        <mxCell id="aU-Zfj_-0vGyHJJdXDir-21" value="InTransition = false" style="text;html=1;align=center;verticalAlign=middle;resizable=0;points=[];autosize=1;strokeColor=#d79b00;fillColor=#ffe6cc;" vertex="1" parent="aU-Zfj_-0vGyHJJdXDir-1">
          <mxGeometry x="354" y="398" width="130" height="30" as="geometry" />
        </mxCell>
        <mxCell id="aU-Zfj_-0vGyHJJdXDir-22" style="edgeStyle=orthogonalEdgeStyle;rounded=0;orthogonalLoop=1;jettySize=auto;html=1;curved=0;" edge="1" parent="aU-Zfj_-0vGyHJJdXDir-1">
          <mxGeometry relative="1" as="geometry">
            <mxPoint x="419.02380952380963" y="378" as="sourcePoint" />
            <mxPoint x="650" y="378" as="targetPoint" />
            <Array as="points">
              <mxPoint x="651" y="378" />
            </Array>
          </mxGeometry>
        </mxCell>
        <mxCell id="aU-Zfj_-0vGyHJJdXDir-23" value="QueueFree()" style="edgeLabel;html=1;align=center;verticalAlign=middle;resizable=0;points=[];" vertex="1" connectable="0" parent="aU-Zfj_-0vGyHJJdXDir-22">
          <mxGeometry x="0.1429" y="-1" relative="1" as="geometry">
            <mxPoint as="offset" />
          </mxGeometry>
        </mxCell>
        <mxCell id="a-50_DG4Xvg-8ufwJ2Tj-0" value="AddChild(ToScene)" style="text;html=1;align=center;verticalAlign=middle;resizable=0;points=[];autosize=1;strokeColor=#d79b00;fillColor=#ffe6cc;" vertex="1" parent="aU-Zfj_-0vGyHJJdXDir-1">
          <mxGeometry x="354" y="240" width="130" height="30" as="geometry" />
        </mxCell>
      </root>
    </mxGraphModel>
  </diagram>
  <diagram name="Flow" id="W1IDKgRX0HpsQwxDYuru">
    <mxGraphModel dx="819" dy="431" grid="1" gridSize="10" guides="1" tooltips="1" connect="1" arrows="1" fold="1" page="1" pageScale="1" pageWidth="827" pageHeight="1169" math="0" shadow="0">
      <root>
        <mxCell id="8_Wzi9dIYf5JuMLY92vr-0" />
        <mxCell id="8_Wzi9dIYf5JuMLY92vr-1" parent="8_Wzi9dIYf5JuMLY92vr-0" />
        <mxCell id="P0LxQzF5MVkVxDQGscoO-4" value="" style="rounded=0;whiteSpace=wrap;html=1;dashed=1;strokeWidth=3;fillColor=#fff2cc;strokeColor=#d6b656;" vertex="1" parent="8_Wzi9dIYf5JuMLY92vr-1">
          <mxGeometry x="400" y="584" width="280" height="46" as="geometry" />
        </mxCell>
        <mxCell id="M5WX9E3il3SHJGs2K32r-5" value="" style="rounded=0;whiteSpace=wrap;html=1;dashed=1;strokeWidth=3;fillColor=#fff2cc;strokeColor=#d6b656;" vertex="1" parent="8_Wzi9dIYf5JuMLY92vr-1">
          <mxGeometry x="400" y="539" width="280" height="46" as="geometry" />
        </mxCell>
        <mxCell id="M5WX9E3il3SHJGs2K32r-6" style="edgeStyle=orthogonalEdgeStyle;rounded=0;orthogonalLoop=1;jettySize=auto;html=1;curved=0;exitX=0.5;exitY=1;exitDx=0;exitDy=0;entryX=0.51;entryY=0.818;entryDx=0;entryDy=0;entryPerimeter=0;" edge="1" source="M5WX9E3il3SHJGs2K32r-8" parent="8_Wzi9dIYf5JuMLY92vr-1">
          <mxGeometry relative="1" as="geometry">
            <mxPoint x="419.02380952380963" y="523" as="sourcePoint" />
            <mxPoint x="650" y="565" as="targetPoint" />
            <Array as="points">
              <mxPoint x="649" y="565" />
              <mxPoint x="649" y="565" />
            </Array>
          </mxGeometry>
        </mxCell>
        <mxCell id="M5WX9E3il3SHJGs2K32r-7" value="QueueFree()" style="edgeLabel;html=1;align=center;verticalAlign=middle;resizable=0;points=[];" vertex="1" connectable="0" parent="M5WX9E3il3SHJGs2K32r-6">
          <mxGeometry x="0.1429" y="-1" relative="1" as="geometry">
            <mxPoint as="offset" />
          </mxGeometry>
        </mxCell>
        <mxCell id="M5WX9E3il3SHJGs2K32r-8" value="Pop" style="text;html=1;align=left;verticalAlign=middle;whiteSpace=wrap;rounded=0;labelBackgroundColor=none;labelBorderColor=none;textShadow=1;fontSize=16;" vertex="1" parent="8_Wzi9dIYf5JuMLY92vr-1">
          <mxGeometry x="400" y="535" width="50" height="30" as="geometry" />
        </mxCell>
        <mxCell id="M5WX9E3il3SHJGs2K32r-0" value="" style="rounded=0;whiteSpace=wrap;html=1;dashed=1;strokeWidth=3;fillColor=#fff2cc;strokeColor=#d6b656;" vertex="1" parent="8_Wzi9dIYf5JuMLY92vr-1">
          <mxGeometry x="400" y="494" width="280" height="46" as="geometry" />
        </mxCell>
        <mxCell id="8TJlfUQPXleJeoFz5dSI-2" value="" style="rounded=0;whiteSpace=wrap;html=1;dashed=1;strokeWidth=3;fillColor=#fff2cc;strokeColor=#d6b656;" vertex="1" parent="8_Wzi9dIYf5JuMLY92vr-1">
          <mxGeometry x="340" y="250" width="210" height="60" as="geometry" />
        </mxCell>
        <mxCell id="8TJlfUQPXleJeoFz5dSI-3" style="edgeStyle=orthogonalEdgeStyle;rounded=0;orthogonalLoop=1;jettySize=auto;html=1;curved=0;startArrow=block;startFill=1;endArrow=oval;endFill=0;" edge="1" parent="8_Wzi9dIYf5JuMLY92vr-1">
          <mxGeometry relative="1" as="geometry">
            <mxPoint x="418.92857142857133" y="263.02857142857135" as="sourcePoint" />
            <mxPoint x="532.5" y="263.02857142857135" as="targetPoint" />
            <Array as="points">
              <mxPoint x="479" y="263" />
              <mxPoint x="479" y="263" />
            </Array>
          </mxGeometry>
        </mxCell>
        <mxCell id="8TJlfUQPXleJeoFz5dSI-4" value="Get previous Scene" style="edgeLabel;html=1;align=center;verticalAlign=middle;resizable=0;points=[];" vertex="1" connectable="0" parent="8TJlfUQPXleJeoFz5dSI-3">
          <mxGeometry x="0.0252" y="-2" relative="1" as="geometry">
            <mxPoint y="1" as="offset" />
          </mxGeometry>
        </mxCell>
        <mxCell id="8TJlfUQPXleJeoFz5dSI-0" value="" style="rounded=0;whiteSpace=wrap;html=1;dashed=1;strokeWidth=3;fillColor=#fff2cc;strokeColor=#d6b656;" vertex="1" parent="8_Wzi9dIYf5JuMLY92vr-1">
          <mxGeometry x="340" y="220" width="210" height="30" as="geometry" />
        </mxCell>
        <mxCell id="8TJlfUQPXleJeoFz5dSI-6" value="Pop" style="text;html=1;align=left;verticalAlign=middle;whiteSpace=wrap;rounded=0;labelBackgroundColor=none;labelBorderColor=none;textShadow=1;fontSize=16;" vertex="1" parent="8_Wzi9dIYf5JuMLY92vr-1">
          <mxGeometry x="340" y="246" width="50" height="30" as="geometry" />
        </mxCell>
        <mxCell id="8_Wzi9dIYf5JuMLY92vr-2" value="Transition" style="shape=umlLifeline;perimeter=lifelinePerimeter;whiteSpace=wrap;html=1;container=1;dropTarget=0;collapsible=0;recursiveResize=0;outlineConnect=0;portConstraint=eastwest;newEdgeStyle={&quot;curved&quot;:0,&quot;rounded&quot;:0};" vertex="1" parent="8_Wzi9dIYf5JuMLY92vr-1">
          <mxGeometry x="210" y="80" width="100" height="410" as="geometry" />
        </mxCell>
        <mxCell id="8_Wzi9dIYf5JuMLY92vr-3" value="" style="html=1;points=[[0,0,0,0,5],[0,1,0,0,-5],[1,0,0,0,5],[1,1,0,0,-5]];perimeter=orthogonalPerimeter;outlineConnect=0;targetShapes=umlLifeline;portConstraint=eastwest;newEdgeStyle={&quot;curved&quot;:0,&quot;rounded&quot;:0};" vertex="1" parent="8_Wzi9dIYf5JuMLY92vr-2">
          <mxGeometry x="44.5" y="308" width="11" height="80" as="geometry" />
        </mxCell>
        <mxCell id="8_Wzi9dIYf5JuMLY92vr-4" style="edgeStyle=orthogonalEdgeStyle;rounded=0;orthogonalLoop=1;jettySize=auto;html=1;curved=0;" edge="1" parent="8_Wzi9dIYf5JuMLY92vr-1" source="8_Wzi9dIYf5JuMLY92vr-6" target="8_Wzi9dIYf5JuMLY92vr-9">
          <mxGeometry relative="1" as="geometry">
            <Array as="points">
              <mxPoint x="160" y="140" />
              <mxPoint x="160" y="140" />
            </Array>
          </mxGeometry>
        </mxCell>
        <mxCell id="8_Wzi9dIYf5JuMLY92vr-5" value="User press" style="edgeLabel;html=1;align=center;verticalAlign=middle;resizable=0;points=[];" vertex="1" connectable="0" parent="8_Wzi9dIYf5JuMLY92vr-4">
          <mxGeometry x="-0.1531" y="1" relative="1" as="geometry">
            <mxPoint as="offset" />
          </mxGeometry>
        </mxCell>
        <mxCell id="8_Wzi9dIYf5JuMLY92vr-6" value="" style="shape=umlLifeline;perimeter=lifelinePerimeter;whiteSpace=wrap;html=1;container=1;dropTarget=0;collapsible=0;recursiveResize=0;outlineConnect=0;portConstraint=eastwest;newEdgeStyle={&quot;curved&quot;:0,&quot;rounded&quot;:0};participant=umlActor;" vertex="1" parent="8_Wzi9dIYf5JuMLY92vr-1">
          <mxGeometry x="80" y="70" width="20" height="120" as="geometry" />
        </mxCell>
        <mxCell id="8_Wzi9dIYf5JuMLY92vr-7" style="edgeStyle=orthogonalEdgeStyle;rounded=0;orthogonalLoop=1;jettySize=auto;html=1;curved=0;startArrow=oval;startFill=1;" edge="1" parent="8_Wzi9dIYf5JuMLY92vr-1" source="8_Wzi9dIYf5JuMLY92vr-9" target="8_Wzi9dIYf5JuMLY92vr-14">
          <mxGeometry relative="1" as="geometry">
            <Array as="points">
              <mxPoint x="240" y="160" />
              <mxPoint x="240" y="160" />
            </Array>
          </mxGeometry>
        </mxCell>
        <mxCell id="8_Wzi9dIYf5JuMLY92vr-8" value="TransitionToMenu()" style="edgeLabel;html=1;align=center;verticalAlign=middle;resizable=0;points=[];" vertex="1" connectable="0" parent="8_Wzi9dIYf5JuMLY92vr-7">
          <mxGeometry x="0.0311" y="-2" relative="1" as="geometry">
            <mxPoint as="offset" />
          </mxGeometry>
        </mxCell>
        <mxCell id="8_Wzi9dIYf5JuMLY92vr-9" value="Button" style="shape=umlLifeline;perimeter=lifelinePerimeter;whiteSpace=wrap;html=1;container=1;dropTarget=0;collapsible=0;recursiveResize=0;outlineConnect=0;portConstraint=eastwest;newEdgeStyle={&quot;curved&quot;:0,&quot;rounded&quot;:0};" vertex="1" parent="8_Wzi9dIYf5JuMLY92vr-1">
          <mxGeometry x="130" y="70" width="100" height="300" as="geometry" />
        </mxCell>
        <mxCell id="8_Wzi9dIYf5JuMLY92vr-10" style="edgeStyle=orthogonalEdgeStyle;rounded=0;orthogonalLoop=1;jettySize=auto;html=1;curved=0;startArrow=block;startFill=1;endArrow=oval;endFill=0;" edge="1" parent="8_Wzi9dIYf5JuMLY92vr-1">
          <mxGeometry relative="1" as="geometry">
            <mxPoint x="418.92857142857133" y="233.02857142857135" as="sourcePoint" />
            <mxPoint x="532.5" y="233.02857142857135" as="targetPoint" />
            <Array as="points">
              <mxPoint x="479" y="233" />
              <mxPoint x="479" y="233" />
            </Array>
          </mxGeometry>
        </mxCell>
        <mxCell id="8_Wzi9dIYf5JuMLY92vr-11" value="Load/Create Scene" style="edgeLabel;html=1;align=center;verticalAlign=middle;resizable=0;points=[];" vertex="1" connectable="0" parent="8_Wzi9dIYf5JuMLY92vr-10">
          <mxGeometry x="0.0252" y="-2" relative="1" as="geometry">
            <mxPoint y="1" as="offset" />
          </mxGeometry>
        </mxCell>
        <mxCell id="8_Wzi9dIYf5JuMLY92vr-12" style="edgeStyle=orthogonalEdgeStyle;rounded=0;orthogonalLoop=1;jettySize=auto;html=1;curved=0;startArrow=classic;startFill=1;endArrow=oval;endFill=0;" edge="1" parent="8_Wzi9dIYf5JuMLY92vr-1">
          <mxGeometry relative="1" as="geometry">
            <mxPoint x="419.02380952380963" y="378" as="sourcePoint" />
            <mxPoint x="648.5" y="378" as="targetPoint" />
            <Array as="points">
              <mxPoint x="539" y="378" />
              <mxPoint x="539" y="378" />
            </Array>
          </mxGeometry>
        </mxCell>
        <mxCell id="8_Wzi9dIYf5JuMLY92vr-13" value="Get current active scene" style="edgeLabel;html=1;align=center;verticalAlign=middle;resizable=0;points=[];" vertex="1" connectable="0" parent="8_Wzi9dIYf5JuMLY92vr-12">
          <mxGeometry x="0.1693" relative="1" as="geometry">
            <mxPoint as="offset" />
          </mxGeometry>
        </mxCell>
        <mxCell id="8_Wzi9dIYf5JuMLY92vr-14" value="MenuController" style="shape=umlLifeline;perimeter=lifelinePerimeter;whiteSpace=wrap;html=1;container=1;dropTarget=0;collapsible=0;recursiveResize=0;outlineConnect=0;portConstraint=eastwest;newEdgeStyle={&quot;curved&quot;:0,&quot;rounded&quot;:0};" vertex="1" parent="8_Wzi9dIYf5JuMLY92vr-1">
          <mxGeometry x="369" y="70" width="100" height="650" as="geometry" />
        </mxCell>
        <mxCell id="8_Wzi9dIYf5JuMLY92vr-15" value="ToScene" style="shape=umlLifeline;perimeter=lifelinePerimeter;whiteSpace=wrap;html=1;container=1;dropTarget=0;collapsible=0;recursiveResize=0;outlineConnect=0;portConstraint=eastwest;newEdgeStyle={&quot;curved&quot;:0,&quot;rounded&quot;:0};" vertex="1" parent="8_Wzi9dIYf5JuMLY92vr-1">
          <mxGeometry x="483" y="70" width="100" height="600" as="geometry" />
        </mxCell>
        <mxCell id="8_Wzi9dIYf5JuMLY92vr-16" value="FromScene" style="shape=umlLifeline;perimeter=lifelinePerimeter;whiteSpace=wrap;html=1;container=1;dropTarget=0;collapsible=0;recursiveResize=0;outlineConnect=0;portConstraint=eastwest;newEdgeStyle={&quot;curved&quot;:0,&quot;rounded&quot;:0};" vertex="1" parent="8_Wzi9dIYf5JuMLY92vr-1">
          <mxGeometry x="599" y="70" width="100" height="560" as="geometry" />
        </mxCell>
        <mxCell id="8_Wzi9dIYf5JuMLY92vr-17" value="&lt;h1&gt;Flow&lt;/h1&gt;" style="text;html=1;align=center;verticalAlign=middle;whiteSpace=wrap;rounded=0;" vertex="1" parent="8_Wzi9dIYf5JuMLY92vr-1">
          <mxGeometry x="80" y="30" width="490" height="30" as="geometry" />
        </mxCell>
        <mxCell id="8_Wzi9dIYf5JuMLY92vr-18" value="InTransition = true" style="text;html=1;align=center;verticalAlign=middle;resizable=0;points=[];autosize=1;strokeColor=#d79b00;fillColor=#ffe6cc;" vertex="1" parent="8_Wzi9dIYf5JuMLY92vr-1">
          <mxGeometry x="359" y="177" width="120" height="30" as="geometry" />
        </mxCell>
        <mxCell id="8_Wzi9dIYf5JuMLY92vr-19" value="PerformTransition()" style="html=1;verticalAlign=bottom;endArrow=block;curved=0;rounded=0;entryX=0.949;entryY=0.136;entryDx=0;entryDy=0;entryPerimeter=0;" edge="1" parent="8_Wzi9dIYf5JuMLY92vr-1" target="8_Wzi9dIYf5JuMLY92vr-3">
          <mxGeometry relative="1" as="geometry">
            <mxPoint x="418.5" y="398.88" as="sourcePoint" />
          </mxGeometry>
        </mxCell>
        <mxCell id="8_Wzi9dIYf5JuMLY92vr-20" value="return" style="html=1;verticalAlign=bottom;endArrow=open;dashed=1;endSize=8;curved=0;rounded=0;exitX=1.158;exitY=0.932;exitDx=0;exitDy=0;exitPerimeter=0;" edge="1" parent="8_Wzi9dIYf5JuMLY92vr-1" source="8_Wzi9dIYf5JuMLY92vr-3">
          <mxGeometry relative="1" as="geometry">
            <mxPoint x="418.5" y="462.56000000000006" as="targetPoint" />
          </mxGeometry>
        </mxCell>
        <mxCell id="8_Wzi9dIYf5JuMLY92vr-21" value="InTransition = false" style="text;html=1;align=center;verticalAlign=middle;resizable=0;points=[];autosize=1;strokeColor=#d79b00;fillColor=#ffe6cc;" vertex="1" parent="8_Wzi9dIYf5JuMLY92vr-1">
          <mxGeometry x="354" y="647" width="130" height="30" as="geometry" />
        </mxCell>
        <mxCell id="8_Wzi9dIYf5JuMLY92vr-22" style="edgeStyle=orthogonalEdgeStyle;rounded=0;orthogonalLoop=1;jettySize=auto;html=1;curved=0;exitX=0.5;exitY=1;exitDx=0;exitDy=0;" edge="1" parent="8_Wzi9dIYf5JuMLY92vr-1" source="M5WX9E3il3SHJGs2K32r-4">
          <mxGeometry relative="1" as="geometry">
            <mxPoint x="419.02380952380963" y="478" as="sourcePoint" />
            <mxPoint x="650" y="520" as="targetPoint" />
            <Array as="points">
              <mxPoint x="649" y="520" />
              <mxPoint x="649" y="520" />
            </Array>
          </mxGeometry>
        </mxCell>
        <mxCell id="8_Wzi9dIYf5JuMLY92vr-23" value="RemoveChild" style="edgeLabel;html=1;align=center;verticalAlign=middle;resizable=0;points=[];" vertex="1" connectable="0" parent="8_Wzi9dIYf5JuMLY92vr-22">
          <mxGeometry x="0.1429" y="-1" relative="1" as="geometry">
            <mxPoint as="offset" />
          </mxGeometry>
        </mxCell>
        <mxCell id="8TJlfUQPXleJeoFz5dSI-1" value="Push" style="text;html=1;align=left;verticalAlign=middle;whiteSpace=wrap;rounded=0;labelBackgroundColor=none;labelBorderColor=none;textShadow=1;fontSize=16;" vertex="1" parent="8_Wzi9dIYf5JuMLY92vr-1">
          <mxGeometry x="340" y="216" width="50" height="30" as="geometry" />
        </mxCell>
        <mxCell id="8TJlfUQPXleJeoFz5dSI-5" value="AddChild(ToScene)" style="text;html=1;align=center;verticalAlign=middle;resizable=0;points=[];autosize=1;strokeColor=#d79b00;fillColor=#ffe6cc;" vertex="1" parent="8_Wzi9dIYf5JuMLY92vr-1">
          <mxGeometry x="354" y="276" width="130" height="30" as="geometry" />
        </mxCell>
        <mxCell id="M5WX9E3il3SHJGs2K32r-4" value="Push" style="text;html=1;align=left;verticalAlign=middle;whiteSpace=wrap;rounded=0;labelBackgroundColor=none;labelBorderColor=none;textShadow=1;fontSize=16;" vertex="1" parent="8_Wzi9dIYf5JuMLY92vr-1">
          <mxGeometry x="400" y="490" width="50" height="30" as="geometry" />
        </mxCell>
        <mxCell id="P0LxQzF5MVkVxDQGscoO-0" value="" style="rounded=0;whiteSpace=wrap;html=1;dashed=1;strokeWidth=3;fillColor=#fff2cc;strokeColor=#d6b656;" vertex="1" parent="8_Wzi9dIYf5JuMLY92vr-1">
          <mxGeometry x="340" y="310" width="210" height="30" as="geometry" />
        </mxCell>
        <mxCell id="P0LxQzF5MVkVxDQGscoO-1" style="edgeStyle=orthogonalEdgeStyle;rounded=0;orthogonalLoop=1;jettySize=auto;html=1;curved=0;startArrow=block;startFill=1;endArrow=oval;endFill=0;" edge="1" parent="8_Wzi9dIYf5JuMLY92vr-1">
          <mxGeometry relative="1" as="geometry">
            <mxPoint x="418.92857142857133" y="323.02857142857135" as="sourcePoint" />
            <mxPoint x="532.5" y="323.02857142857135" as="targetPoint" />
            <Array as="points">
              <mxPoint x="479" y="323" />
              <mxPoint x="479" y="323" />
            </Array>
          </mxGeometry>
        </mxCell>
        <mxCell id="P0LxQzF5MVkVxDQGscoO-2" value="Load/Create Scene" style="edgeLabel;html=1;align=center;verticalAlign=middle;resizable=0;points=[];" vertex="1" connectable="0" parent="P0LxQzF5MVkVxDQGscoO-1">
          <mxGeometry x="0.0252" y="-2" relative="1" as="geometry">
            <mxPoint y="1" as="offset" />
          </mxGeometry>
        </mxCell>
        <mxCell id="P0LxQzF5MVkVxDQGscoO-3" value="Switch" style="text;html=1;align=left;verticalAlign=middle;whiteSpace=wrap;rounded=0;labelBackgroundColor=none;labelBorderColor=none;textShadow=1;fontSize=16;" vertex="1" parent="8_Wzi9dIYf5JuMLY92vr-1">
          <mxGeometry x="340" y="306" width="50" height="30" as="geometry" />
        </mxCell>
        <mxCell id="P0LxQzF5MVkVxDQGscoO-5" style="edgeStyle=orthogonalEdgeStyle;rounded=0;orthogonalLoop=1;jettySize=auto;html=1;curved=0;exitX=0.5;exitY=1;exitDx=0;exitDy=0;entryX=0.51;entryY=0.818;entryDx=0;entryDy=0;entryPerimeter=0;" edge="1" source="P0LxQzF5MVkVxDQGscoO-7" parent="8_Wzi9dIYf5JuMLY92vr-1">
          <mxGeometry relative="1" as="geometry">
            <mxPoint x="419.02380952380963" y="568" as="sourcePoint" />
            <mxPoint x="650" y="610" as="targetPoint" />
            <Array as="points">
              <mxPoint x="649" y="610" />
              <mxPoint x="649" y="610" />
            </Array>
          </mxGeometry>
        </mxCell>
        <mxCell id="P0LxQzF5MVkVxDQGscoO-6" value="QueueFree()" style="edgeLabel;html=1;align=center;verticalAlign=middle;resizable=0;points=[];" vertex="1" connectable="0" parent="P0LxQzF5MVkVxDQGscoO-5">
          <mxGeometry x="0.1429" y="-1" relative="1" as="geometry">
            <mxPoint as="offset" />
          </mxGeometry>
        </mxCell>
        <mxCell id="P0LxQzF5MVkVxDQGscoO-7" value="Switch" style="text;html=1;align=left;verticalAlign=middle;whiteSpace=wrap;rounded=0;labelBackgroundColor=none;labelBorderColor=none;textShadow=1;fontSize=16;" vertex="1" parent="8_Wzi9dIYf5JuMLY92vr-1">
          <mxGeometry x="400" y="580" width="50" height="30" as="geometry" />
        </mxCell>
      </root>
    </mxGraphModel>
  </diagram>
</mxfile>
